<svg xmlns="http://www.w3.org/2000/svg" version="1.1" xmlns:xlink="http://www.w3.org/1999/xlink" width="200" height="200"><svg xmlns="http://www.w3.org/2000/svg" version="1.1" xmlns:xlink="http://www.w3.org/1999/xlink" width="200" height="200"><svg xmlns="http://www.w3.org/2000/svg" version="1.1" xmlns:xlink="http://www.w3.org/1999/xlink" viewBox="0 0 200 200"><rect width="200" height="200" fill="url('#gradient')"></rect><defs><linearGradient id="gradient" gradientTransform="rotate(45 0.5 0.5)"><stop offset="0%" stop-color="#e2e1ba"></stop><stop offset="100%" stop-color="#fff8ea"></stop></linearGradient></defs><g><g fill="#acc6ca" transform="matrix(2.142508427292805,0,0,2.142508427292805,8.657316049988516,115.2374923383027)" stroke="#5aa3a6" stroke-width="0.2"><path d="M8.41-3.78L8.41-3.78Q8.41-4.53 7.88-4.95Q7.34-5.37 6.01-5.82Q4.67-6.27 3.82-6.69L3.82-6.69Q1.05-8.05 1.05-10.42L1.05-10.42Q1.05-11.60 1.74-12.50Q2.43-13.41 3.69-13.91Q4.95-14.41 6.52-14.41L6.52-14.41Q8.06-14.41 9.27-13.87Q10.49-13.32 11.16-12.31Q11.84-11.30 11.84-10L11.84-10L8.42-10Q8.42-10.87 7.89-11.35Q7.35-11.83 6.45-11.83L6.45-11.83Q5.53-11.83 5.00-11.42Q4.46-11.02 4.46-10.39L4.46-10.39Q4.46-9.84 5.05-9.40Q5.63-8.96 7.11-8.48Q8.58-8.01 9.53-7.46L9.53-7.46Q11.84-6.13 11.84-3.80L11.84-3.80Q11.84-1.93 10.43-0.87Q9.02 0.20 6.57 0.20L6.57 0.20Q4.84 0.20 3.44-0.42Q2.04-1.04 1.33-2.12Q0.63-3.20 0.63-4.61L0.63-4.61L4.06-4.61Q4.06-3.47 4.65-2.92Q5.24-2.38 6.57-2.38L6.57-2.38Q7.42-2.38 7.92-2.75Q8.41-3.12 8.41-3.78ZM21.69-4.81L25.10-4.81Q25.03-3.33 24.30-2.19Q23.56-1.05 22.24-0.43Q20.92 0.20 19.22 0.20L19.22 0.20Q16.42 0.20 14.80-1.63Q13.19-3.46 13.19-6.79L13.19-6.79L13.19-7.49Q13.19-9.58 13.92-11.15Q14.65-12.71 16.02-13.57Q17.38-14.42 19.18-14.42L19.18-14.42Q21.77-14.42 23.34-13.06Q24.91-11.70 25.13-9.31L25.13-9.31L21.71-9.31Q21.67-10.61 21.05-11.17Q20.44-11.74 19.18-11.74L19.18-11.74Q17.90-11.74 17.30-10.78Q16.71-9.82 16.68-7.72L16.68-7.72L16.68-6.72Q16.68-4.44 17.25-3.47Q17.82-2.49 19.22-2.49L19.22-2.49Q20.40-2.49 21.03-3.05Q21.65-3.60 21.69-4.81L21.69-4.81ZM35.63 0L34.79-2.66L30.10-2.66L29.28 0L25.62 0L30.83-14.22L34.05-14.22L39.31 0L35.63 0ZM32.44-10.23L30.92-5.30L33.97-5.30L32.44-10.23ZM52.22-14.22L52.22 0L48.81 0L43.77-8.85L43.77 0L40.34 0L40.34-14.22L43.77-14.22L48.80-5.37L48.80-14.22L52.22-14.22ZM71.01-7.60L71.01-1.76Q70.21-0.88 68.69-0.34Q67.17 0.20 65.35 0.20L65.35 0.20Q62.56 0.20 60.89-1.51Q59.22-3.22 59.10-6.27L59.10-6.27L59.09-7.50Q59.09-9.60 59.83-11.17Q60.58-12.73 61.96-13.58Q63.34-14.42 65.16-14.42L65.16-14.42Q67.81-14.42 69.28-13.21Q70.75-11.99 71.00-9.58L71.00-9.58L67.70-9.58Q67.52-10.77 66.93-11.28Q66.35-11.79 65.27-11.79L65.27-11.79Q63.98-11.79 63.28-10.69Q62.58-9.60 62.57-7.57L62.57-7.57L62.57-6.71Q62.57-4.58 63.30-3.51Q64.02-2.44 65.59-2.44L65.59-2.44Q66.92-2.44 67.58-3.04L67.58-3.04L67.58-5.24L65.20-5.24L65.20-7.60L71.01-7.60ZM84.64-7.60L84.64-1.76Q83.85-0.88 82.32-0.34Q80.80 0.20 78.98 0.20L78.98 0.20Q76.19 0.20 74.52-1.51Q72.85-3.22 72.73-6.27L72.73-6.27L72.72-7.50Q72.72-9.60 73.47-11.17Q74.21-12.73 75.59-13.58Q76.97-14.42 78.79-14.42L78.79-14.42Q81.45-14.42 82.92-13.21Q84.38-11.99 84.63-9.58L84.63-9.58L81.33-9.58Q81.15-10.77 80.57-11.28Q79.98-11.79 78.91-11.79L78.91-11.79Q77.62-11.79 76.91-10.69Q76.21-9.60 76.20-7.57L76.20-7.57L76.20-6.71Q76.20-4.58 76.93-3.51Q77.66-2.44 79.22-2.44L79.22-2.44Q80.56-2.44 81.21-3.04L81.21-3.04L81.21-5.24L78.83-5.24L78.83-7.60L84.64-7.60Z"></path></g></g></svg></svg><style>@media (prefers-color-scheme: light) { :root { filter: none; } }
@media (prefers-color-scheme: dark) { :root { filter: none; } }
</style></svg>